G75*
G70*
%OFA0B0*%
%FSLAX24Y24*%
%IPPOS*%
%LPD*%
%AMOC8*
5,1,8,0,0,1.08239X$1,22.5*
%
%ADD10C,0.0000*%
%ADD11R,0.0512X0.0591*%
%ADD12R,0.0394X0.0551*%
%ADD13R,0.0551X0.0394*%
%ADD14R,0.0591X0.0512*%
D10*
X003621Y000711D02*
X003621Y040081D01*
X018503Y040081D01*
X018503Y000711D01*
X003621Y000711D01*
D11*
X009232Y002404D03*
X009980Y002404D03*
X012342Y002483D03*
X013090Y002483D03*
X005413Y032640D03*
X004665Y032640D03*
X010610Y033270D03*
X011358Y033270D03*
X016909Y033467D03*
X017657Y033467D03*
D12*
X013405Y025987D03*
X013031Y025120D03*
X012657Y025987D03*
X013641Y023979D03*
X014015Y023113D03*
X014389Y023979D03*
X010413Y023309D03*
X010039Y022443D03*
X009665Y023309D03*
X008405Y024924D03*
X008031Y024057D03*
X007657Y024924D03*
D13*
X008661Y005298D03*
X008661Y004550D03*
X009527Y004924D03*
X011180Y005140D03*
X011180Y004392D03*
X012047Y004766D03*
X014606Y004609D03*
X015472Y004983D03*
X015472Y004235D03*
X007440Y004884D03*
X006574Y004510D03*
X006574Y005258D03*
D14*
X009094Y019746D03*
X009094Y020494D03*
X011062Y020534D03*
X011062Y019786D03*
X012047Y019786D03*
X012047Y020534D03*
X017952Y029353D03*
X017952Y030101D03*
X007598Y032660D03*
X007598Y033408D03*
X006614Y033408D03*
X006614Y032660D03*
M02*
