G75*
G70*
%OFA0B0*%
%FSLAX24Y24*%
%IPPOS*%
%LPD*%
%AMOC8*
5,1,8,0,0,1.08239X$1,22.5*
%
%ADD10C,0.0000*%
%ADD11C,0.0709*%
%ADD12C,0.0745*%
%ADD13OC8,0.0560*%
%ADD14OC8,0.0670*%
%ADD15C,0.0670*%
%ADD16R,0.0740X0.0740*%
%ADD17C,0.0740*%
%ADD18C,0.0700*%
%ADD19C,0.0560*%
%ADD20C,0.0560*%
%ADD21R,0.0631X0.0552*%
%ADD22C,0.0640*%
%ADD23OC8,0.0640*%
%ADD24R,0.0552X0.0631*%
%ADD25C,0.0640*%
%ADD26C,0.2340*%
%ADD27R,0.0631X0.0631*%
D10*
X003621Y000711D02*
X003621Y040081D01*
X018503Y040081D01*
X018503Y000711D01*
X003621Y000711D01*
D11*
X011688Y036617D03*
X011688Y039617D03*
D12*
X010519Y038048D02*
X010519Y037343D01*
X009869Y038893D02*
X009869Y039598D01*
X009169Y038048D02*
X009169Y037343D01*
X008469Y038893D02*
X008469Y039598D01*
X007819Y038048D02*
X007819Y037343D01*
D13*
X012330Y028518D03*
X012330Y027518D03*
X014173Y027518D03*
X014173Y028518D03*
X014228Y039577D03*
X013228Y039577D03*
D14*
X013106Y037483D03*
X006102Y038479D03*
D15*
X006102Y039479D03*
X014506Y037483D03*
D16*
X008062Y003640D03*
D17*
X009062Y003640D03*
X010062Y003640D03*
X011062Y003640D03*
X012062Y003640D03*
X013062Y003640D03*
X014062Y003640D03*
X014062Y021640D03*
X013062Y021640D03*
X012062Y021640D03*
X011062Y021640D03*
X010062Y021640D03*
X009062Y021640D03*
X008062Y021640D03*
D18*
X009566Y035512D03*
X010066Y036262D03*
X009066Y036262D03*
D19*
X008602Y034873D02*
X008602Y034353D01*
X009602Y034353D02*
X009602Y034873D01*
X010602Y034873D02*
X010602Y034353D01*
X011602Y034353D02*
X011602Y034873D01*
X012602Y034873D02*
X012602Y034353D01*
X013602Y034353D02*
X013602Y034873D01*
X014602Y034873D02*
X014602Y034353D01*
X015602Y034353D02*
X015602Y034873D01*
X016602Y034873D02*
X016602Y034353D01*
X017602Y034353D02*
X017602Y034873D01*
X017602Y031873D02*
X017602Y031353D01*
X016602Y031353D02*
X016602Y031873D01*
X015602Y031873D02*
X015602Y031353D01*
X014602Y031353D02*
X014602Y031873D01*
X013602Y031873D02*
X013602Y031353D01*
X012602Y031353D02*
X012602Y031873D01*
X011602Y031873D02*
X011602Y031353D01*
X010602Y031353D02*
X010602Y031873D01*
X009602Y031873D02*
X009602Y031353D01*
X008602Y031353D02*
X008602Y031873D01*
X007602Y031873D02*
X007602Y031353D01*
X006602Y031353D02*
X006602Y031873D01*
X005602Y031873D02*
X005602Y031353D01*
X004602Y031353D02*
X004602Y031873D01*
X004602Y034353D02*
X004602Y034873D01*
X005602Y034873D02*
X005602Y034353D01*
X006602Y034353D02*
X006602Y034873D01*
X007602Y034873D02*
X007602Y034353D01*
X006519Y027971D02*
X005999Y027971D01*
X005999Y026971D02*
X006519Y026971D01*
X006519Y025971D02*
X005999Y025971D01*
X005999Y024971D02*
X006519Y024971D01*
X006519Y023971D02*
X005999Y023971D01*
X005999Y022971D02*
X006519Y022971D01*
X006519Y021971D02*
X005999Y021971D01*
X005999Y020971D02*
X006519Y020971D01*
X006519Y019971D02*
X005999Y019971D01*
X005999Y018971D02*
X006519Y018971D01*
X006519Y017971D02*
X005999Y017971D01*
X005999Y016971D02*
X006519Y016971D01*
X006519Y015971D02*
X005999Y015971D01*
X005814Y014609D02*
X005294Y014609D01*
X005294Y013609D02*
X005814Y013609D01*
X005814Y012609D02*
X005294Y012609D01*
X005294Y011609D02*
X005814Y011609D01*
X005814Y010609D02*
X005294Y010609D01*
X005294Y009609D02*
X005814Y009609D01*
X005814Y008609D02*
X005294Y008609D01*
X005294Y007609D02*
X005814Y007609D01*
X005814Y006609D02*
X005294Y006609D01*
X008294Y006609D02*
X008814Y006609D01*
X008814Y007609D02*
X008294Y007609D01*
X008294Y008609D02*
X008814Y008609D01*
X008814Y009609D02*
X008294Y009609D01*
X008294Y010609D02*
X008814Y010609D01*
X008814Y011609D02*
X008294Y011609D01*
X008294Y012609D02*
X008814Y012609D01*
X008814Y013609D02*
X008294Y013609D01*
X008294Y014609D02*
X008814Y014609D01*
X010161Y013609D02*
X010681Y013609D01*
X010681Y012609D02*
X010161Y012609D01*
X010161Y011609D02*
X010681Y011609D01*
X010681Y010609D02*
X010161Y010609D01*
X010161Y009609D02*
X010681Y009609D01*
X010681Y008609D02*
X010161Y008609D01*
X010161Y007609D02*
X010681Y007609D01*
X010681Y006609D02*
X010161Y006609D01*
X013161Y006609D02*
X013681Y006609D01*
X013681Y007609D02*
X013161Y007609D01*
X013161Y008609D02*
X013681Y008609D01*
X013681Y009609D02*
X013161Y009609D01*
X013161Y010609D02*
X013681Y010609D01*
X013681Y011609D02*
X013161Y011609D01*
X013161Y012609D02*
X013681Y012609D01*
X013681Y013609D02*
X013161Y013609D01*
D20*
X012380Y030006D03*
X014280Y030006D03*
D21*
X012141Y008825D03*
X012141Y008077D03*
D22*
X016543Y038920D03*
D23*
X016543Y037920D03*
X016543Y036920D03*
X017543Y036920D03*
X017543Y037920D03*
X017543Y038920D03*
D24*
X006350Y035912D03*
X005602Y035912D03*
D25*
X005314Y036946D02*
X005314Y037546D01*
X004669Y038479D02*
X004069Y038479D01*
X004314Y037546D02*
X004314Y036946D01*
X004069Y039479D02*
X004669Y039479D01*
X006314Y037546D02*
X006314Y036946D01*
X006047Y030424D02*
X005447Y030424D01*
X005447Y029424D02*
X006047Y029424D01*
X004669Y029424D02*
X004069Y029424D01*
X004069Y030424D02*
X004669Y030424D01*
X015408Y027971D02*
X016008Y027971D01*
X016008Y026971D02*
X015408Y026971D01*
X015408Y025971D02*
X016008Y025971D01*
X016008Y024971D02*
X015408Y024971D01*
X015408Y023971D02*
X016008Y023971D01*
X016008Y022971D02*
X015408Y022971D01*
X015408Y021971D02*
X016008Y021971D01*
X016008Y020971D02*
X015408Y020971D01*
X015408Y019971D02*
X016008Y019971D01*
X016008Y018971D02*
X015408Y018971D01*
X015408Y017971D02*
X016008Y017971D01*
X016008Y016971D02*
X015408Y016971D01*
X015408Y015971D02*
X016008Y015971D01*
D26*
X016810Y002404D03*
X005314Y002404D03*
D27*
X017952Y028959D03*
X017952Y030337D03*
M02*
