%
M48
M72
T01C0.0120
T02C0.0276
T03C0.0320
T04C0.0400
T05C0.0433
T06C0.0470
T07C0.1260
%
T01
X4251Y4412
X4881Y5672
X5629Y4491
X8149Y4805
X8188Y2404
X10275Y4372
X11220Y1617
X15472Y8979
X16456Y10947
X17086Y12994
X17558Y16065
X17125Y17246
X12283Y25971
X10708Y27971
X10393Y26971
X8936Y23971
X9212Y22971
X11023Y22522
X8425Y26971
X11062Y14294
X17952Y28034
X17401Y29727
X16810Y32719
T02
X14062Y21640
X13062Y21640
X12062Y21640
X11062Y21640
X10062Y21640
X9062Y21640
X8062Y21640
X8062Y3640
X9062Y3640
X10062Y3640
X11062Y3640
X12062Y3640
X13062Y3640
X14062Y3640
T03
X13421Y6609
X13421Y7609
X13421Y8609
X13421Y9609
X13421Y10609
X13421Y11609
X13421Y12609
X13421Y13609
X10421Y13609
X10421Y12609
X10421Y11609
X10421Y10609
X10421Y9609
X10421Y8609
X10421Y7609
X10421Y6609
X8554Y6609
X8554Y7609
X8554Y8609
X8554Y9609
X8554Y10609
X8554Y11609
X8554Y12609
X8554Y13609
X8554Y14609
X6259Y15971
X6259Y16971
X6259Y17971
X6259Y18971
X6259Y19971
X6259Y20971
X6259Y21971
X6259Y22971
X6259Y23971
X6259Y24971
X6259Y25971
X6259Y26971
X6259Y27971
X6602Y31613
X7602Y31613
X8602Y31613
X9602Y31613
X10602Y31613
X11602Y31613
X12380Y30006
X12330Y28518
X12330Y27518
X14173Y27518
X14173Y28518
X14280Y30006
X14602Y31613
X15602Y31613
X16602Y31613
X17602Y31613
X17602Y34613
X16602Y34613
X15602Y34613
X14602Y34613
X13602Y34613
X12602Y34613
X11602Y34613
X10602Y34613
X10066Y36262
X9566Y35512
X9602Y34613
X9066Y36262
X8602Y34613
X7602Y34613
X6602Y34613
X5602Y34613
X4602Y34613
X4602Y31613
X5602Y31613
X6102Y38479
X6102Y39479
X12602Y31613
X13602Y31613
X13106Y37483
X13228Y39577
X14228Y39577
X14506Y37483
X5554Y14609
X5554Y13609
X5554Y12609
X5554Y11609
X5554Y10609
X5554Y9609
X5554Y8609
X5554Y7609
X5554Y6609
T04
X15708Y15971
X15708Y16971
X15708Y17971
X15708Y18971
X15708Y19971
X15708Y20971
X15708Y21971
X15708Y22971
X15708Y23971
X15708Y24971
X15708Y25971
X15708Y26971
X15708Y27971
X16543Y36920
X16543Y37920
X16543Y38920
X17543Y38920
X17543Y37920
X17543Y36920
X6314Y37246
X5314Y37246
X4369Y38479
X4369Y39479
X4314Y37246
X4369Y30424
X4369Y29424
X5747Y29424
X5747Y30424
T05
X11688Y36617
X11688Y39617
T06
X10519Y37696
X9869Y39246
X9169Y37696
X8469Y39246
X7819Y37696
T07
X5314Y2404
X16810Y2404
M30
